<svg width="252" height="216" viewBox="0 0 252 216" fill="none" xmlns="http://www.w3.org/2000/svg">
<g clip-path="url(#clip0_102_92)">
<path d="M186.912 121.587C186.156 121.797 185.362 121.84 184.588 121.713C183.813 121.586 183.075 121.292 182.425 120.851C181.774 120.41 181.228 119.834 180.822 119.161C180.417 118.488 180.162 117.735 180.076 116.954L154.208 109.135L154.61 101.443L185.266 110.954C186.59 110.906 187.886 111.347 188.907 112.192C189.929 113.037 190.605 114.228 190.808 115.539C191.011 116.849 190.727 118.189 190.009 119.304C189.291 120.419 188.189 121.231 186.912 121.587V121.587Z" fill="#FFB6B6"/>
<path d="M99.8214 81.9065C97.2022 79.7189 101.038 68.8764 100.003 65.7337C99.9415 65.5435 99.8827 65.3527 99.827 65.1613C99.7099 64.7557 99.7361 64.3221 99.9012 63.9337L109.623 59.3568C112.157 60.3927 114.491 61.8613 116.522 63.6972L131.541 80.8653L146.462 94.3523L153.009 97.2734L174.705 106.958L174.48 107.607L174.478 107.609L172.093 114.54L172.093 114.544L176.864 117.873L161.246 115.518L150.916 111.254L140.97 107.149C126.286 98.3037 102.124 93.719 99.8214 81.9065Z" fill="#3EA5D1"/>
<path d="M106.814 171.44L106.684 171.277C106.31 168.871 106.814 171.44 106.814 171.44Z" fill="#232324"/>
<path d="M113.445 197.389H77.1743C74.3564 190.378 72.4003 185.364 72.4003 185.364C72.4003 185.364 71.9254 190.275 71.2476 197.389H38.4566C38.1497 178.058 37.7201 158.209 37.5786 151.905L100.519 153.308L106.779 161.254C106.8 161.386 106.822 161.533 106.848 161.698C107.102 163.312 110.51 180.642 113.445 197.389Z" fill="#232324"/>
<path d="M112.895 61.4251L112.889 61.4138C112.689 61.0421 112.368 60.7508 111.978 60.5889C107.996 57.4966 103.635 56.0869 98.7419 57.051C97.9407 54.6237 97.1936 54.6237 97.1936 54.6237L86.5803 51.1155L85.0536 41.7829L58.9031 40.8971L56.5266 52.5432C56.5266 52.5432 41.9098 55.1655 41.9098 57.0619C41.9098 58.9582 44.3459 58.9582 41.9098 58.9582C39.4737 58.9582 38.8213 56.791 36.7127 58.9582C36.5321 59.1403 36.3414 59.3121 36.1416 59.4729C36.1172 59.4946 36.0902 59.5135 36.0658 59.5352C33.6828 61.4111 31.81 63.8573 30.6203 66.6483C29.4306 69.4392 28.9621 72.4851 29.2582 75.5049L33.7542 120.266L38.5534 168.029L104.231 170.765L108.63 130.122L113.104 62.498C113.144 62.1275 113.071 61.7535 112.895 61.4251V61.4251Z" fill="#3EA5D1"/>
<path d="M10.4876 207.589C10.8626 208.533 11.241 209.225 11.6228 209.567L139 209.838C139.382 209.496 139.76 208.804 140.135 207.86C144.59 196.643 136.186 184.479 124.125 184.456L26.5043 184.271C14.4597 184.248 6.03849 196.387 10.4876 207.589Z" fill="white"/>
<path d="M139.103 210.109L138.999 210.109L11.5191 209.838L11.4423 209.769C11.0453 209.413 10.6507 208.733 10.2361 207.689C9.18164 205.08 8.7927 202.248 9.10438 199.451C9.41605 196.653 10.4185 193.977 12.0215 191.664C13.6219 189.303 15.7755 187.37 18.2944 186.034C20.8132 184.698 23.6206 184 26.4713 184H26.5049L124.125 184.185C126.986 184.191 129.802 184.897 132.328 186.243C134.853 187.588 137.011 189.532 138.613 191.905C140.214 194.225 141.214 196.906 141.523 199.708C141.833 202.511 141.442 205.346 140.387 207.96C139.972 209.004 139.577 209.684 139.18 210.04L139.103 210.109ZM20.1333 209.271L128.138 208.943C135.762 208.92 141.37 201.555 139.111 194.267C138.898 193.539 138.579 192.845 138.165 192.208C136.612 189.909 134.521 188.025 132.074 186.721C129.626 185.417 126.897 184.733 124.124 184.727L26.5038 184.542H26.4713C25.2317 184.583 24.0093 184.845 22.8612 185.314C16.5555 187.702 12.339 193.705 11.9883 200.443C11.9839 200.529 11.9794 200.615 11.975 200.701C11.9199 201.77 12.0758 202.839 12.4337 203.848C12.7915 204.856 13.3444 205.785 14.0606 206.579C14.7769 207.374 15.6426 208.02 16.6083 208.48C17.5739 208.94 18.6207 209.205 19.6887 209.26C19.8368 209.268 19.985 209.271 20.1333 209.271L20.1333 209.271Z" fill="#E6E6E6"/>
<path d="M158.365 85.7298C156.97 79.8658 157.202 74.0902 159.591 68.4316C159.616 68.0815 159.779 67.7558 160.044 67.5258C160.309 67.2958 160.654 67.1803 161.004 67.2048L174.058 68.1317C174.407 68.157 174.733 68.32 174.963 68.5852C175.193 68.8503 175.308 69.1959 175.283 69.546L174.057 86.8441C174.032 87.1942 173.869 87.52 173.604 87.75C173.339 87.98 172.994 88.0954 172.644 88.071L159.591 87.144C159.241 87.1188 158.915 86.9557 158.686 86.6906C158.456 86.4254 158.34 86.0799 158.365 85.7298V85.7298Z" fill="#F2F2F2"/>
<path d="M159.736 80.5761C158.62 77.6864 159.334 73.7122 160.525 69.4552C160.548 69.1274 160.701 68.8223 160.949 68.6069C161.197 68.3915 161.521 68.2833 161.848 68.3062L173.066 69.1029C173.394 69.1265 173.699 69.2792 173.914 69.5276C174.129 69.7759 174.237 70.0995 174.214 70.4274L173.123 85.8204C173.1 86.1483 172.947 86.4534 172.699 86.6688C172.451 86.8842 172.127 86.9923 171.8 86.9694L164.85 86.4759C163.391 86.3706 162.033 85.6903 161.074 84.5842C160.116 83.4782 159.634 82.0367 159.736 80.5761Z" fill="white"/>
<path d="M167.503 81.3302C167.161 81.2713 166.818 81.2123 166.475 81.1534C166.633 80.7805 166.724 80.3827 166.745 79.9782C166.907 77.8133 166.923 75.6276 167.01 73.4583C167.007 73.3789 166.982 73.3019 166.937 73.2366C166.892 73.1712 166.829 73.1203 166.756 73.0899C166.683 73.0595 166.602 73.051 166.524 73.0654C166.446 73.0798 166.374 73.1164 166.317 73.1709C165.456 73.8843 164.595 74.5977 163.735 75.311C163.332 75.6449 163.909 76.2171 164.309 75.8857C164.927 75.3737 165.544 74.8617 166.162 74.3496C166.105 75.7711 166.049 77.1925 165.992 78.614C165.965 79.2962 166.048 80.1247 165.769 80.766C165.73 80.8525 165.681 80.9334 165.621 81.0064C165.241 80.9412 164.862 80.8759 164.482 80.8107C164.21 80.7638 163.863 80.9917 163.983 81.3106C164.244 82.0038 165.014 82.2228 165.674 81.9557C165.732 81.9295 165.788 81.8993 165.842 81.8653L167.288 82.1139C167.799 82.2018 168.018 81.4187 167.503 81.3302Z" fill="#3EA5D1"/>
<path d="M234.155 143.974C232.76 138.11 232.993 132.334 235.382 126.676C235.407 126.326 235.57 126 235.835 125.77C236.1 125.54 236.445 125.424 236.795 125.449L249.848 126.376C250.198 126.401 250.523 126.564 250.753 126.829C250.983 127.094 251.098 127.44 251.074 127.79L249.848 145.088C249.822 145.438 249.659 145.764 249.394 145.994C249.13 146.224 248.784 146.339 248.434 146.315L235.381 145.388C235.031 145.363 234.706 145.2 234.476 144.935C234.246 144.669 234.131 144.324 234.155 143.974V143.974Z" fill="#F2F2F2"/>
<path d="M235.527 138.82C234.411 135.931 235.125 131.956 236.316 127.699C236.339 127.372 236.492 127.066 236.74 126.851C236.988 126.636 237.312 126.527 237.639 126.55L248.857 127.347C249.185 127.371 249.49 127.523 249.705 127.772C249.92 128.02 250.028 128.344 250.006 128.672L248.914 144.064C248.891 144.392 248.738 144.697 248.49 144.913C248.242 145.128 247.918 145.236 247.591 145.213L240.641 144.72C239.182 144.615 237.824 143.934 236.865 142.828C235.907 141.722 235.425 140.281 235.527 138.82V138.82Z" fill="white"/>
<path d="M242.85 135.885C242.999 135.816 243.141 135.73 243.271 135.63C243.619 135.343 243.876 134.961 244.011 134.53C244.147 134.1 244.154 133.639 244.033 133.205C243.507 131.269 241.194 131.258 239.597 131.491C239.082 131.566 239.301 132.349 239.813 132.274C240.889 132.117 242.578 131.99 243.157 133.167C243.289 133.443 243.336 133.753 243.292 134.056C243.248 134.359 243.115 134.642 242.91 134.869C242.664 135.116 242.341 135.269 241.996 135.304C241.661 135.158 241.297 135.091 240.932 135.106C240.556 135.124 240.346 135.671 240.727 135.863C241.065 136.031 241.436 136.119 241.813 136.119C242.125 136.27 242.386 136.51 242.563 136.808C242.739 137.107 242.824 137.452 242.805 137.798C242.77 138.035 242.687 138.262 242.564 138.466C242.44 138.671 242.278 138.85 242.085 138.991C241.893 139.133 241.675 139.236 241.443 139.293C241.211 139.35 240.97 139.361 240.733 139.326L240.723 139.324C240.213 139.221 239.995 140.005 240.507 140.108C241.195 140.237 241.906 140.088 242.484 139.693C243.062 139.298 243.46 138.69 243.59 138.001C243.597 137.964 243.603 137.927 243.608 137.889C243.64 137.519 243.589 137.147 243.458 136.801C243.327 136.454 243.119 136.141 242.85 135.885V135.885Z" fill="#3EA5D1"/>
<path d="M219.539 51.3251C218.144 45.4612 218.376 39.6856 220.765 34.027C220.79 33.6769 220.953 33.3511 221.218 33.1211C221.483 32.8911 221.828 32.7756 222.178 32.8001L235.231 33.7271C235.581 33.7523 235.907 33.9154 236.137 34.1805C236.366 34.4456 236.482 34.7912 236.457 35.1413L235.231 52.4395C235.206 52.7895 235.043 53.1153 234.778 53.3453C234.513 53.5753 234.168 53.6908 233.818 53.6663L220.765 52.7393C220.415 52.7141 220.089 52.551 219.859 52.2859C219.63 52.0208 219.514 51.6752 219.539 51.3251V51.3251Z" fill="#F2F2F2"/>
<path d="M220.911 46.1715C219.794 43.2819 220.508 39.3077 221.699 35.0507C221.723 34.7228 221.875 34.4177 222.123 34.2023C222.372 33.9869 222.695 33.8788 223.023 33.9017L234.241 34.6984C234.568 34.722 234.873 34.8747 235.088 35.123C235.304 35.3713 235.412 35.6949 235.389 36.0229L234.297 51.4158C234.274 51.7437 234.121 52.0488 233.873 52.2642C233.625 52.4796 233.302 52.5877 232.974 52.5648L226.025 52.0713C224.565 51.966 223.207 51.2858 222.249 50.1797C221.29 49.0737 220.809 47.6322 220.911 46.1715V46.1715Z" fill="white"/>
<path d="M227.809 38.4253C226.659 38.0259 225.38 38.936 225.25 40.1161C225.102 41.4536 226.539 42.5095 227.784 42.146C228.285 41.9998 228.072 41.2153 227.568 41.3623C226.656 41.6288 225.683 40.643 226.207 39.7616C226.326 39.5489 226.507 39.3775 226.726 39.2703C226.945 39.1631 227.192 39.1252 227.433 39.1616C227.637 39.2183 227.826 39.3222 227.983 39.465C228.14 39.6078 228.261 39.7854 228.338 39.9837C228.785 40.9932 228.253 42.018 227.548 42.7518C227.146 43.1702 226.674 43.4954 226.241 43.8769C226.03 44.0362 225.855 44.2379 225.727 44.4691C225.599 44.7002 225.521 44.9557 225.498 45.2189C225.509 45.515 225.601 45.8023 225.764 46.0497C225.927 46.2972 226.154 46.4953 226.421 46.6228C227.114 46.9792 227.901 46.8659 228.638 46.7473C229.152 46.6644 228.934 45.8811 228.422 45.9636C227.778 46.0673 226.813 46.2245 226.405 45.5523C226.056 44.9766 226.776 44.4712 227.168 44.1649C228.154 43.3953 229.152 42.4015 229.3 41.0929C229.421 40.0209 228.877 38.796 227.809 38.4253Z" fill="#3EA5D1"/>
<path d="M29.7194 117.607L36.1508 120.506C33.1273 122.96 28.523 126.262 24.0135 127.79L16.8486 122.9C14.1797 112.601 15.8146 101.987 19.0221 93.0116C20.7993 88.0245 23.1559 83.2637 26.0436 78.8272C25.7478 75.8074 26.2164 72.7616 27.4061 69.9707C28.5958 67.1798 30.4684 64.7336 32.8512 62.8575C32.8783 62.8358 32.9026 62.8168 32.927 62.7952C35.3004 64.8564 37.2391 67.3708 38.6297 70.191C40.0203 73.0113 40.8349 76.0808 41.0258 79.22L41.1692 81.5931L41.4562 86.2689L42.1843 98.2103L33.5496 111.647L29.7194 117.607Z" fill="#3EA5D1"/>
<path d="M50.2223 196.586C50.2975 196.68 50.3931 196.757 50.5018 196.809C50.6106 196.861 50.7297 196.887 50.8503 196.887H94.7926C94.9128 196.887 95.0314 196.86 95.1399 196.808C95.2484 196.756 95.3439 196.681 95.4196 196.587C95.4953 196.494 95.5493 196.385 95.5775 196.268C95.6058 196.151 95.6077 196.029 95.583 195.912L94.9009 192.669C94.8726 192.537 94.8118 192.414 94.7238 192.311C94.6359 192.208 94.5237 192.129 94.3974 192.081C94.306 192.045 94.2087 192.027 94.1105 192.027H51.5297C51.4315 192.027 51.3342 192.045 51.2428 192.081C51.1166 192.129 51.0043 192.208 50.9164 192.311C50.8285 192.414 50.7676 192.537 50.7393 192.669L50.0572 195.912C50.0329 196.029 50.0352 196.151 50.0637 196.268C50.0923 196.384 50.1465 196.493 50.2223 196.586V196.586Z" fill="#232324"/>
<path d="M33 125.435V176.165C33.0005 176.811 33.2573 177.431 33.7141 177.888C34.1708 178.345 34.7902 178.602 35.4361 178.603H110.55C111.196 178.602 111.815 178.345 112.272 177.888C112.729 177.431 112.986 176.811 112.986 176.165V125.435C112.985 124.79 112.727 124.171 112.271 123.714C111.814 123.258 111.195 123.001 110.55 123H35.4361C34.7907 123.001 34.172 123.258 33.7154 123.714C33.2588 124.171 33.0015 124.79 33 125.435V125.435Z" fill="#5C6A77"/>
<path d="M63.5947 168.65V196.434H83.0431V168.65C83.0435 168.45 82.9798 168.255 82.8614 168.094C82.743 167.933 82.5762 167.815 82.3854 167.756C82.2955 167.726 82.2013 167.711 82.1066 167.712H64.534C64.2854 167.712 64.0467 167.81 63.8706 167.986C63.6944 168.162 63.5952 168.4 63.5947 168.649V168.65V168.65ZM71.1846 178.196C71.1898 177.649 71.4108 177.125 71.7996 176.74C72.1884 176.354 72.7135 176.138 73.2607 176.138C73.808 176.138 74.3331 176.354 74.7219 176.74C75.1107 177.125 75.3317 177.649 75.3369 178.196V181.42C75.3341 181.969 75.1141 182.495 74.725 182.883C74.336 183.27 73.8095 183.487 73.2607 183.487C72.7119 183.487 72.1855 183.27 71.7964 182.883C71.4074 182.495 71.1874 181.969 71.1846 181.42V178.196Z" fill="#232324"/>
<path d="M71.9248 42.8772C81.272 42.8772 88.8495 35.2936 88.8495 25.9386C88.8495 16.5837 81.272 9 71.9248 9C62.5775 9 55 16.5837 55 25.9386C55 35.2936 62.5775 42.8772 71.9248 42.8772Z" fill="#FFB6B6"/>
<path d="M93.6097 23.7778C91.7851 24.3447 90.026 24.6789 88.8393 23.181C87.6527 21.683 87.9628 19.9702 86.1977 19.2481C84.7726 18.6633 83.1268 18.9139 81.6897 19.457C81.4333 19.5525 81.1828 19.6599 80.9384 19.7673C80.8012 19.648 80.664 19.5346 80.515 19.4272C79.3931 18.6287 78.008 18.2912 76.645 18.4843C77.6413 18.9659 78.4611 19.7488 78.9884 20.7222C78.4995 20.9669 77.9741 21.1498 77.5037 21.4205C71.0402 25.1396 63.8521 26.6374 64.4387 20.4298C66.3946 25.586 64.874 27.4241 62.0058 32.1328L61.8925 32.4073C62.1787 31.172 60.1664 31.1134 58.428 31.536C57.1441 31.8481 57.975 34.8437 59.6206 36.9071C55.9415 31.3629 50.4309 22.8981 55.1961 18.6513C55.8989 18.025 56.3399 17.1413 56.4662 14.8796C56.541 13.5387 58.8215 13.2027 60.0261 13.7994C60.2004 11.7831 60.9045 9.84887 62.067 8.19286C63.2294 6.53685 64.8089 5.21803 66.645 4.37019C70.3302 2.72902 74.0779 5.25363 78.0821 5.7428C80.3037 6.01421 81.9885 6.90971 82.0773 9.74726C82.1363 11.6369 84.9813 12.3134 86.8417 12.6476C88.0224 12.8565 89.3521 12.7312 90.2943 13.4772C91.3855 14.3425 91.3974 15.8643 91.3915 17.3265C90.3237 17.296 89.2712 17.5848 88.3683 18.156C89.4735 18.1838 90.5418 18.5597 91.4213 19.2302C91.4383 19.2407 91.4542 19.2527 91.469 19.266C91.791 21.7248 91.6598 22.2441 93.6097 23.7778Z" fill="#232324"/>
<path d="M105.816 102.548C112.429 100.491 119.509 102.715 126.159 100.817C127.688 100.398 129.134 99.7183 130.432 98.8077C131.54 97.9671 132.58 97.0408 133.543 96.0372C135.543 94.0571 137.716 91.978 140.721 92.001C144.678 92.0312 147.717 94.9733 150.355 97.5712C150.728 97.9383 151.302 97.3641 150.929 96.9965C148.505 94.6093 145.886 92.0909 142.436 91.3783C140.888 91.0348 139.273 91.1691 137.803 91.7635C136.528 92.3434 135.363 93.1406 134.36 94.1195C133.298 95.0947 132.318 96.1565 131.241 97.1162C130.117 98.1398 128.822 98.9579 127.415 99.5333C124.366 100.748 121.022 100.895 117.78 100.859C113.71 100.815 109.543 100.538 105.6 101.764C105.103 101.919 105.315 102.703 105.816 102.548H105.816Z" fill="#757575"/>
<path d="M151.805 92.0941L153.838 95.6808L154.822 97.4162C154.996 97.7247 155.176 98.0309 155.346 98.3418C155.451 98.5329 155.679 98.8774 155.461 99.0584C155.27 99.1521 155.054 99.1857 154.843 99.1549C154.485 99.1557 154.126 99.1477 153.768 99.144L151.752 99.1236L147.585 99.0813C147.48 99.085 147.38 99.1294 147.307 99.2052C147.234 99.281 147.193 99.3823 147.193 99.4877C147.193 99.5931 147.234 99.6944 147.307 99.7702C147.38 99.846 147.48 99.8904 147.585 99.894C150.004 99.9186 152.424 99.9697 154.843 99.9676C155.265 100.008 155.687 99.8924 156.03 99.6426C156.198 99.4755 156.309 99.2598 156.348 99.026C156.386 98.7922 156.351 98.5522 156.245 98.3398C156.007 97.819 155.733 97.3153 155.424 96.8325L154.539 95.2706L152.506 91.6839C152.45 91.5947 152.361 91.531 152.259 91.506C152.157 91.481 152.049 91.4968 151.958 91.55C151.867 91.6032 151.8 91.6896 151.771 91.7912C151.743 91.8927 151.755 92.0013 151.805 92.0941V92.0941Z" fill="#757575"/>
<path d="M178.676 100.882H159.99C159.888 100.883 159.787 100.863 159.692 100.824C159.597 100.786 159.511 100.728 159.439 100.656C159.366 100.584 159.308 100.498 159.269 100.404C159.229 100.309 159.209 100.208 159.208 100.106C159.208 100.003 159.228 99.9018 159.267 99.8071C159.306 99.7124 159.363 99.6263 159.435 99.5537C159.507 99.4811 159.593 99.4235 159.688 99.3841C159.782 99.3447 159.883 99.3243 159.986 99.3241C159.987 99.3241 159.989 99.3241 159.99 99.3241H178.676C178.778 99.3237 178.879 99.3434 178.974 99.3823C179.069 99.4211 179.155 99.4782 179.227 99.5503C179.3 99.6225 179.358 99.7083 179.397 99.8027C179.437 99.8972 179.457 99.9985 179.457 100.101C179.458 100.203 179.438 100.305 179.399 100.4C179.36 100.494 179.303 100.58 179.231 100.653C179.159 100.726 179.073 100.783 178.978 100.823C178.884 100.862 178.783 100.882 178.68 100.882C178.679 100.883 178.677 100.883 178.676 100.882Z" fill="#E6E6E6"/>
<path d="M178.676 113.433H159.99C159.888 113.433 159.787 113.413 159.692 113.375C159.598 113.336 159.512 113.279 159.439 113.206C159.367 113.134 159.309 113.049 159.27 112.954C159.23 112.86 159.21 112.759 159.209 112.656C159.209 112.554 159.229 112.452 159.268 112.358C159.307 112.263 159.364 112.177 159.436 112.105C159.508 112.032 159.594 111.974 159.688 111.935C159.782 111.895 159.883 111.875 159.986 111.875C159.987 111.875 159.989 111.875 159.99 111.875H178.676C178.778 111.874 178.879 111.894 178.974 111.933C179.068 111.972 179.154 112.029 179.227 112.101C179.299 112.173 179.357 112.259 179.396 112.353C179.436 112.448 179.456 112.549 179.457 112.651C179.457 112.754 179.437 112.855 179.398 112.95C179.359 113.044 179.302 113.131 179.23 113.203C179.158 113.276 179.072 113.333 178.978 113.373C178.884 113.412 178.783 113.433 178.68 113.433C178.679 113.433 178.677 113.433 178.676 113.433Z" fill="#E6E6E6"/>
<path d="M197.018 107.158H159.99C159.888 107.158 159.787 107.138 159.692 107.1C159.597 107.061 159.511 107.004 159.439 106.932C159.366 106.859 159.308 106.774 159.269 106.679C159.229 106.585 159.209 106.483 159.208 106.381C159.208 106.279 159.228 106.177 159.267 106.082C159.306 105.988 159.363 105.902 159.435 105.829C159.507 105.756 159.593 105.699 159.688 105.659C159.782 105.62 159.883 105.6 159.986 105.599C159.987 105.599 159.989 105.599 159.99 105.599H197.018C197.121 105.599 197.222 105.619 197.317 105.658C197.411 105.696 197.498 105.753 197.57 105.826C197.643 105.898 197.7 105.984 197.74 106.078C197.779 106.172 197.8 106.274 197.8 106.376C197.8 106.479 197.781 106.58 197.742 106.675C197.703 106.769 197.646 106.856 197.573 106.928C197.501 107.001 197.416 107.058 197.321 107.098C197.227 107.137 197.125 107.158 197.023 107.158C197.021 107.158 197.02 107.158 197.018 107.158Z" fill="#E6E6E6"/>
<path d="M172.227 93.5237C176.338 87.946 183.359 85.541 187.593 80.0693C188.577 78.8253 189.34 77.4207 189.847 75.9173C190.242 74.5833 190.532 73.2204 190.713 71.841C191.153 69.0599 191.673 66.097 194.108 64.3339C197.314 62.0121 201.504 62.5811 205.166 63.1104C205.271 63.1228 205.376 63.094 205.46 63.0301C205.544 62.9662 205.6 62.8722 205.616 62.768C205.632 62.6637 205.606 62.5574 205.545 62.4714C205.484 62.3854 205.392 62.3265 205.289 62.307C201.923 61.8207 198.323 61.3441 195.121 62.8153C193.671 63.4561 192.449 64.522 191.616 65.8723C190.932 67.0955 190.465 68.4284 190.237 69.8115C189.958 71.227 189.797 72.6634 189.497 74.0751C189.197 75.5663 188.638 76.9932 187.845 78.2909C186.108 81.0768 183.501 83.1772 180.868 85.0708C177.562 87.4479 174.041 89.6947 171.589 93.0202C171.28 93.4398 171.916 93.9462 172.227 93.5237L172.227 93.5237Z" fill="#757575"/>
<path d="M203.093 57.8377L206.854 59.5223L208.673 60.3374C208.997 60.4822 209.323 60.6225 209.644 60.7721C209.841 60.864 210.229 61.0062 210.161 61.2814C210.114 61.4688 209.863 61.6196 209.72 61.7254C209.432 61.9385 209.138 62.1446 208.847 62.3541L207.211 63.5329L203.828 65.9689C203.746 66.0343 203.692 66.1292 203.678 66.2336C203.664 66.338 203.691 66.4439 203.753 66.5288C203.815 66.6137 203.908 66.671 204.012 66.6887C204.116 66.7065 204.223 66.6832 204.309 66.6237C206.273 65.2095 208.253 63.8159 210.201 62.3802C210.565 62.1626 210.837 61.8191 210.965 61.4147C211.001 61.1805 210.963 60.9409 210.856 60.7296C210.748 60.5183 210.578 60.3462 210.367 60.2374C209.867 59.9591 209.348 59.716 208.814 59.5097L207.176 58.7761L203.415 57.0916C203.317 57.0531 203.208 57.0542 203.111 57.0947C203.013 57.1352 202.935 57.212 202.894 57.3088C202.852 57.4056 202.849 57.5149 202.886 57.6136C202.924 57.7123 202.998 57.7927 203.093 57.8377L203.093 57.8377Z" fill="#757575"/>
<path d="M236.872 62.1435H218.187C218.084 62.1439 217.983 62.1241 217.888 62.0853C217.793 62.0465 217.707 61.9894 217.635 61.9172C217.562 61.8451 217.504 61.7593 217.465 61.6649C217.426 61.5704 217.405 61.469 217.405 61.3666C217.404 61.2642 217.424 61.1628 217.463 61.0681C217.502 60.9734 217.559 60.8872 217.631 60.8147C217.704 60.7421 217.789 60.6844 217.884 60.6451C217.978 60.6057 218.08 60.5853 218.182 60.5851C218.183 60.5851 218.185 60.5851 218.187 60.5851H236.872C236.974 60.5847 237.076 60.6044 237.17 60.6432C237.265 60.6821 237.351 60.7392 237.424 60.8113C237.496 60.8835 237.554 60.9692 237.593 61.0637C237.633 61.1582 237.653 61.2595 237.654 61.3619C237.654 61.4643 237.634 61.5658 237.595 61.6605C237.556 61.7552 237.499 61.8413 237.427 61.9139C237.355 61.9865 237.269 62.0441 237.175 62.0835C237.08 62.1229 236.979 62.1433 236.877 62.1435C236.875 62.1435 236.873 62.1435 236.872 62.1435Z" fill="#3EA5D1"/>
<path d="M186.573 118.125C190.684 123.703 197.705 126.108 201.939 131.579C202.923 132.823 203.686 134.228 204.193 135.731C204.588 137.065 204.878 138.428 205.06 139.808C205.499 142.589 206.019 145.552 208.454 147.315C211.66 149.636 215.85 149.067 219.513 148.538C219.617 148.526 219.723 148.555 219.806 148.618C219.89 148.682 219.946 148.776 219.962 148.881C219.978 148.985 219.953 149.091 219.892 149.177C219.831 149.263 219.739 149.322 219.635 149.342C216.269 149.828 212.669 150.304 209.467 148.833C208.017 148.192 206.795 147.127 205.962 145.776C205.278 144.553 204.812 143.22 204.583 141.837C204.304 140.422 204.143 138.985 203.843 137.573C203.543 136.082 202.984 134.655 202.191 133.358C200.454 130.572 197.847 128.471 195.214 126.578C191.908 124.201 188.387 121.954 185.936 118.628C185.626 118.209 186.262 117.702 186.573 118.125L186.573 118.125Z" fill="#757575"/>
<path d="M217.44 153.811L221.2 152.126L223.02 151.311C223.343 151.166 223.669 151.026 223.99 150.876C224.188 150.784 224.576 150.642 224.507 150.367C224.46 150.18 224.21 150.029 224.066 149.923C223.778 149.71 223.484 149.504 223.194 149.294L221.557 148.116L218.175 145.68C218.092 145.614 218.038 145.519 218.024 145.415C218.01 145.31 218.037 145.205 218.1 145.12C218.162 145.035 218.255 144.977 218.359 144.96C218.462 144.942 218.569 144.965 218.656 145.025C220.619 146.439 222.6 147.833 224.547 149.268C224.911 149.486 225.183 149.829 225.311 150.234C225.348 150.468 225.309 150.708 225.202 150.919C225.095 151.13 224.924 151.302 224.714 151.411C224.213 151.689 223.694 151.933 223.16 152.139L221.522 152.872L217.762 154.557C217.664 154.595 217.554 154.594 217.457 154.554C217.36 154.513 217.282 154.436 217.24 154.34C217.199 154.243 217.196 154.134 217.233 154.035C217.27 153.936 217.344 153.856 217.439 153.811H217.44Z" fill="#757575"/>
<path d="M251.218 151.812H232.533C232.326 151.813 232.128 151.732 231.982 151.586C231.835 151.441 231.752 151.243 231.751 151.036C231.751 150.83 231.832 150.632 231.977 150.485C232.122 150.338 232.319 150.255 232.526 150.254C232.528 150.254 232.53 150.254 232.533 150.254H251.218C251.424 150.253 251.622 150.334 251.769 150.48C251.915 150.625 251.998 150.823 251.999 151.03C252 151.236 251.919 151.434 251.774 151.581C251.629 151.728 251.431 151.811 251.225 151.812C251.223 151.812 251.22 151.812 251.218 151.812Z" fill="#3EA5D1"/>
<path d="M38.2115 121.524C37.8577 122.226 37.3559 122.842 36.7407 123.33C36.1256 123.819 35.4118 124.168 34.6487 124.353C33.8856 124.538 33.0914 124.555 32.3211 124.403C31.5508 124.25 30.8227 123.932 30.1872 123.471L10.7266 132.739L9.42236 127.28L29.241 115.592C30.0969 114.579 31.2943 113.916 32.6062 113.727C33.9181 113.539 35.2534 113.839 36.3591 114.57C37.4649 115.302 38.2641 116.413 38.6055 117.695C38.9469 118.977 38.8067 120.339 38.2115 121.524L38.2115 121.524Z" fill="#FFB6B6"/>
<path d="M30.7122 93.3713L17.0185 121.374L22.8056 118.749L26.8334 116.921L28.8527 124.598C28.8527 124.598 27.5155 125.899 25.4069 127.608C22.3834 130.062 17.7791 133.365 13.2696 134.892C9.73988 136.09 6.27246 136.201 3.66851 133.969C-1.27413 129.732 3.55753 112.906 8.22677 100.095C11.3531 91.5156 14.4037 84.7403 14.4037 84.7403C14.4037 75.6922 31.9489 62.6817 35.2051 60.9018C37.0647 59.8886 37.5789 61.3643 37.5789 61.3643L27.3747 76.3153L30.4253 88.6955L31.2888 92.1928L30.7122 93.3713Z" fill="#3EA5D1"/>
</g>
<defs>
<clipPath id="clip0_102_92">
<rect width="252" height="216" fill="white"/>
</clipPath>
</defs>
</svg>
