<svg width="332" height="332" viewBox="0 0 332 332" fill="none" xmlns="http://www.w3.org/2000/svg">
<circle cx="165.992" cy="165.992" r="138.446" transform="rotate(-12.3217 165.992 165.992)" fill="#D7D7D7" stroke="#424141" stroke-width="2"/>
<g filter="url(#filter0_df_101_43)">
<g filter="url(#filter1_di_101_43)">
<path d="M112.476 265.221L134.232 179.289L139.609 162.978L150.368 156.944L154.206 154.791L149.648 124.309L99.6819 117.681L84.2117 90.0958L119.395 70.3644L204.349 69.8611L230.822 198.852L200.872 215.648L169.781 216.778L165.688 235.379L147.951 245.327L112.476 265.221Z" fill="#5EBBB5"/>
<path d="M112.476 265.221L134.232 179.289L139.609 162.978L150.368 156.944L154.206 154.791L149.648 124.309L99.6819 117.681L84.2117 90.0958L119.395 70.3644L204.349 69.8611L230.822 198.852L200.872 215.648L169.781 216.778L165.688 235.379L147.951 245.327L112.476 265.221Z" fill="url(#paint0_linear_101_43)" fill-opacity="0.5"/>
<path d="M112.476 265.221L134.232 179.289L139.609 162.978L150.368 156.944L154.206 154.791L149.648 124.309L99.6819 117.681L84.2117 90.0958L119.395 70.3644L204.349 69.8611L230.822 198.852L200.872 215.648L169.781 216.778L165.688 235.379L147.951 245.327L112.476 265.221Z" fill="url(#paint1_linear_101_43)" fill-opacity="0.3"/>
<path d="M134.232 179.289L112.476 265.221L147.951 245.327M134.232 179.289L156.04 167.059L154.206 154.791M134.232 179.289L139.609 162.978L150.368 156.944L154.206 154.791M147.951 245.327L155.547 217.296L169.781 216.778M147.951 245.327L165.688 235.379L169.781 216.778M200.872 215.648L174.981 86.3311M200.872 215.648L230.822 198.852L204.349 69.8611M200.872 215.648L169.781 216.778M174.981 86.3311L84.2117 90.0958M174.981 86.3311L204.349 69.8611M84.2117 90.0958L99.6819 117.681L149.648 124.309L154.206 154.791M84.2117 90.0958L119.395 70.3644L204.349 69.8611" stroke="#0D0C0C"/>
</g>
</g>
<g filter="url(#filter2_d_101_43)">
<mask id="path-4-inside-1_101_43" fill="white">
<path fill-rule="evenodd" clip-rule="evenodd" d="M278.984 171.488L260.968 189.503C258.344 192.128 258.344 196.383 260.968 199.008C263.593 201.632 267.848 201.632 270.473 199.008L293.008 176.473C294.379 175.101 295.034 173.285 294.972 171.488C295.034 169.691 294.379 167.875 293.008 166.503L270.473 143.968C267.848 141.344 263.593 141.344 260.968 143.968C258.344 146.593 258.344 150.848 260.968 153.473L278.984 171.488Z"/>
</mask>
<path fill-rule="evenodd" clip-rule="evenodd" d="M278.984 171.488L260.968 189.503C258.344 192.128 258.344 196.383 260.968 199.008C263.593 201.632 267.848 201.632 270.473 199.008L293.008 176.473C294.379 175.101 295.034 173.285 294.972 171.488C295.034 169.691 294.379 167.875 293.008 166.503L270.473 143.968C267.848 141.344 263.593 141.344 260.968 143.968C258.344 146.593 258.344 150.848 260.968 153.473L278.984 171.488Z" fill="#5EBBB5"/>
<path d="M278.984 171.488L279.691 170.781L280.398 171.488L279.691 172.195L278.984 171.488ZM260.968 189.503L261.676 190.21L260.968 189.503ZM260.968 199.008L261.676 198.301L260.968 199.008ZM270.473 199.008L269.766 198.301L270.473 199.008ZM293.008 176.473L293.715 177.18H293.715L293.008 176.473ZM294.972 171.488L293.973 171.522L293.972 171.488L293.973 171.453L294.972 171.488ZM293.008 166.503L293.715 165.796H293.715L293.008 166.503ZM270.473 143.968L269.766 144.676V144.676L270.473 143.968ZM260.968 143.968L260.261 143.261L260.968 143.968ZM260.968 153.473L260.261 154.18V154.18L260.968 153.473ZM279.691 172.195L261.676 190.21L260.261 188.796L278.277 170.781L279.691 172.195ZM261.676 190.21C259.442 192.444 259.442 196.067 261.676 198.301L260.261 199.715C257.246 196.7 257.246 191.811 260.261 188.796L261.676 190.21ZM261.676 198.301C263.91 200.535 267.532 200.535 269.766 198.301L271.18 199.715C268.165 202.73 263.276 202.73 260.261 199.715L261.676 198.301ZM269.766 198.301L292.301 175.766L293.715 177.18L271.18 199.715L269.766 198.301ZM292.301 175.766C293.468 174.598 294.026 173.054 293.973 171.522L295.972 171.453C296.043 173.515 295.29 175.604 293.715 177.18L292.301 175.766ZM293.973 171.453C294.025 169.922 293.468 168.378 292.301 167.21L293.715 165.796C295.29 167.372 296.042 169.46 295.972 171.522L293.973 171.453ZM292.301 167.21L269.766 144.676L271.18 143.261L293.715 165.796L292.301 167.21ZM269.766 144.676C267.532 142.441 263.91 142.441 261.676 144.676L260.261 143.261C263.276 140.246 268.165 140.246 271.18 143.261L269.766 144.676ZM261.676 144.676C259.442 146.91 259.442 150.532 261.676 152.766L260.261 154.18C257.246 151.165 257.246 146.276 260.261 143.261L261.676 144.676ZM261.676 152.766L279.691 170.781L278.277 172.195L260.261 154.18L261.676 152.766Z" fill="black" mask="url(#path-4-inside-1_101_43)"/>
</g>
<g filter="url(#filter3_d_101_43)">
<mask id="path-6-inside-2_101_43" fill="white">
<path fill-rule="evenodd" clip-rule="evenodd" d="M53.9925 171.488L72.0077 189.503C74.6323 192.128 74.6323 196.383 72.0077 199.008C69.3832 201.632 65.1279 201.632 62.5033 199.008L39.9684 176.473C38.5969 175.101 37.9421 173.285 38.004 171.488C37.9423 169.691 38.5971 167.875 39.9685 166.503L62.5033 143.968C65.1279 141.344 69.3832 141.344 72.0078 143.968C74.6323 146.593 74.6323 150.848 72.0078 153.473L53.9925 171.488Z"/>
</mask>
<path fill-rule="evenodd" clip-rule="evenodd" d="M53.9925 171.488L72.0077 189.503C74.6323 192.128 74.6323 196.383 72.0077 199.008C69.3832 201.632 65.1279 201.632 62.5033 199.008L39.9684 176.473C38.5969 175.101 37.9421 173.285 38.004 171.488C37.9423 169.691 38.5971 167.875 39.9685 166.503L62.5033 143.968C65.1279 141.344 69.3832 141.344 72.0078 143.968C74.6323 146.593 74.6323 150.848 72.0078 153.473L53.9925 171.488Z" fill="#5EBBB5"/>
<path d="M53.9925 171.488L53.2854 170.781L52.5783 171.488L53.2854 172.195L53.9925 171.488ZM72.0077 189.503L71.3006 190.21L72.0077 189.503ZM72.0077 199.008L71.3006 198.301L72.0077 199.008ZM62.5033 199.008L63.2104 198.301L62.5033 199.008ZM39.9684 176.473L39.2613 177.18H39.2613L39.9684 176.473ZM38.004 171.488L39.0034 171.522L39.0046 171.488L39.0034 171.453L38.004 171.488ZM39.9685 166.503L39.2613 165.796H39.2613L39.9685 166.503ZM62.5033 143.968L63.2104 144.676V144.676L62.5033 143.968ZM72.0078 143.968L72.7149 143.261L72.0078 143.968ZM72.0078 153.473L72.7149 154.18V154.18L72.0078 153.473ZM53.2854 172.195L71.3006 190.21L72.7148 188.796L54.6996 170.781L53.2854 172.195ZM71.3006 190.21C73.5347 192.444 73.5347 196.067 71.3006 198.301L72.7148 199.715C75.7299 196.7 75.7299 191.811 72.7148 188.796L71.3006 190.21ZM71.3006 198.301C69.0666 200.535 65.4445 200.535 63.2104 198.301L61.7962 199.715C64.8113 202.73 69.6997 202.73 72.7148 199.715L71.3006 198.301ZM63.2104 198.301L40.6755 175.766L39.2613 177.18L61.7962 199.715L63.2104 198.301ZM40.6755 175.766C39.5081 174.598 38.9507 173.054 39.0034 171.522L37.0046 171.453C36.9336 173.515 37.6858 175.604 39.2613 177.18L40.6755 175.766ZM39.0034 171.453C38.9508 169.922 39.5082 168.378 40.6756 167.21L39.2613 165.796C37.686 167.372 36.9337 169.46 37.0046 171.522L39.0034 171.453ZM40.6756 167.21L63.2104 144.676L61.7962 143.261L39.2613 165.796L40.6756 167.21ZM63.2104 144.676C65.4445 142.441 69.0666 142.441 71.3006 144.676L72.7149 143.261C69.6998 140.246 64.8113 140.246 61.7962 143.261L63.2104 144.676ZM71.3006 144.676C73.5347 146.91 73.5347 150.532 71.3006 152.766L72.7149 154.18C75.73 151.165 75.73 146.276 72.7149 143.261L71.3006 144.676ZM71.3006 152.766L53.2854 170.781L54.6996 172.195L72.7149 154.18L71.3006 152.766Z" fill="black" mask="url(#path-6-inside-2_101_43)"/>
</g>
<defs>
<filter id="filter0_df_101_43" x="79.531" y="68.3587" width="155.854" height="205.868" filterUnits="userSpaceOnUse" color-interpolation-filters="sRGB">
<feFlood flood-opacity="0" result="BackgroundImageFix"/>
<feColorMatrix in="SourceAlpha" type="matrix" values="0 0 0 0 0 0 0 0 0 0 0 0 0 0 0 0 0 0 127 0" result="hardAlpha"/>
<feOffset dy="4"/>
<feGaussianBlur stdDeviation="2"/>
<feComposite in2="hardAlpha" operator="out"/>
<feColorMatrix type="matrix" values="0 0 0 0 0 0 0 0 0 0 0 0 0 0 0 0 0 0 0.25 0"/>
<feBlend mode="normal" in2="BackgroundImageFix" result="effect1_dropShadow_101_43"/>
<feBlend mode="normal" in="SourceGraphic" in2="effect1_dropShadow_101_43" result="shape"/>
<feGaussianBlur stdDeviation="0.5" result="effect2_foregroundBlur_101_43"/>
</filter>
<filter id="filter1_di_101_43" x="79.531" y="69.3587" width="155.854" height="204.868" filterUnits="userSpaceOnUse" color-interpolation-filters="sRGB">
<feFlood flood-opacity="0" result="BackgroundImageFix"/>
<feColorMatrix in="SourceAlpha" type="matrix" values="0 0 0 0 0 0 0 0 0 0 0 0 0 0 0 0 0 0 127 0" result="hardAlpha"/>
<feOffset dy="4"/>
<feGaussianBlur stdDeviation="2"/>
<feComposite in2="hardAlpha" operator="out"/>
<feColorMatrix type="matrix" values="0 0 0 0 0 0 0 0 0 0 0 0 0 0 0 0 0 0 0.25 0"/>
<feBlend mode="normal" in2="BackgroundImageFix" result="effect1_dropShadow_101_43"/>
<feBlend mode="normal" in="SourceGraphic" in2="effect1_dropShadow_101_43" result="shape"/>
<feColorMatrix in="SourceAlpha" type="matrix" values="0 0 0 0 0 0 0 0 0 0 0 0 0 0 0 0 0 0 127 0" result="hardAlpha"/>
<feOffset dy="4"/>
<feGaussianBlur stdDeviation="2"/>
<feComposite in2="hardAlpha" operator="arithmetic" k2="-1" k3="1"/>
<feColorMatrix type="matrix" values="0 0 0 0 0 0 0 0 0 0 0 0 0 0 0 0 0 0 0.25 0"/>
<feBlend mode="normal" in2="shape" result="effect2_innerShadow_101_43"/>
</filter>
<filter id="filter2_d_101_43" x="255" y="142" width="43.9762" height="66.9762" filterUnits="userSpaceOnUse" color-interpolation-filters="sRGB">
<feFlood flood-opacity="0" result="BackgroundImageFix"/>
<feColorMatrix in="SourceAlpha" type="matrix" values="0 0 0 0 0 0 0 0 0 0 0 0 0 0 0 0 0 0 127 0" result="hardAlpha"/>
<feOffset dy="4"/>
<feGaussianBlur stdDeviation="2"/>
<feComposite in2="hardAlpha" operator="out"/>
<feColorMatrix type="matrix" values="0 0 0 0 0 0 0 0 0 0 0 0 0 0 0 0 0 0 0.25 0"/>
<feBlend mode="normal" in2="BackgroundImageFix" result="effect1_dropShadow_101_43"/>
<feBlend mode="normal" in="SourceGraphic" in2="effect1_dropShadow_101_43" result="shape"/>
</filter>
<filter id="filter3_d_101_43" x="34" y="142" width="43.9762" height="66.9762" filterUnits="userSpaceOnUse" color-interpolation-filters="sRGB">
<feFlood flood-opacity="0" result="BackgroundImageFix"/>
<feColorMatrix in="SourceAlpha" type="matrix" values="0 0 0 0 0 0 0 0 0 0 0 0 0 0 0 0 0 0 127 0" result="hardAlpha"/>
<feOffset dy="4"/>
<feGaussianBlur stdDeviation="2"/>
<feComposite in2="hardAlpha" operator="out"/>
<feColorMatrix type="matrix" values="0 0 0 0 0 0 0 0 0 0 0 0 0 0 0 0 0 0 0.25 0"/>
<feBlend mode="normal" in2="BackgroundImageFix" result="effect1_dropShadow_101_43"/>
<feBlend mode="normal" in="SourceGraphic" in2="effect1_dropShadow_101_43" result="shape"/>
</filter>
<linearGradient id="paint0_linear_101_43" x1="123.962" y1="257.206" x2="181.057" y2="85.9222" gradientUnits="userSpaceOnUse">
<stop stop-color="#706868"/>
<stop offset="1" stop-color="#AFAFAF" stop-opacity="0"/>
</linearGradient>
<linearGradient id="paint1_linear_101_43" x1="90.3504" y1="84.5409" x2="207.762" y2="184.917" gradientUnits="userSpaceOnUse">
<stop stop-color="white"/>
<stop offset="0.427083" stop-color="white" stop-opacity="0"/>
</linearGradient>
</defs>
</svg>
