<svg width="242" height="183" viewBox="0 0 242 183" fill="none" xmlns="http://www.w3.org/2000/svg">
<g clip-path="url(#clip0_102_61)">
<path d="M220.573 170.882L218.994 151.225L214.48 172.011C214.48 172.011 214.54 177.256 214.69 183H220.472C220.666 176.433 220.573 170.882 220.573 170.882Z" fill="#F2F2F2"/>
<path d="M139.357 177.872C138.912 176.034 138.598 174.167 138.418 172.284L137.786 165.484C137.52 163.622 137.247 161.981 136.973 160.533C134.961 150.206 132.884 149.833 132.884 149.833C132.795 149.901 132.708 149.977 132.619 150.055C132.375 150.278 132.147 150.518 131.939 150.774C128.631 154.983 126.387 165.902 125.208 173.144C124.557 177.145 124.232 180.024 124.232 180.024C124.232 180.024 124.527 181.251 124.929 183H140.024C139.967 181.273 139.743 179.556 139.357 177.872V177.872Z" fill="#F2F2F2"/>
<path d="M68.0594 69.8943C85.0637 69.8943 98.8483 57.3344 98.8483 41.841C98.8483 26.3476 85.0637 13.7877 68.0594 13.7877C51.0552 13.7877 37.2705 26.3476 37.2705 41.841C37.2705 57.3344 51.0552 69.8943 68.0594 69.8943Z" fill="#323043"/>
<path d="M118.781 133.513C118.781 133.513 129.152 126.374 129.152 123.129C129.152 119.884 136.282 98.7914 140.171 108.202C144.06 117.613 134.661 130.917 134.661 130.917C134.661 130.917 124.29 149.738 118.132 152.983C111.975 156.228 106.789 154.281 106.789 154.281V145.52L112.714 136.74C113.385 135.746 114.288 134.932 115.346 134.37C116.404 133.807 117.583 133.513 118.781 133.513V133.513Z" fill="#FFB9B9"/>
<path d="M89.3018 83.8112C89.3018 83.8112 104.844 88.7318 106.465 91.0034C108.085 93.2749 108.733 89.3808 113.271 104.308C117.808 119.235 118.942 133.676 118.942 133.676C118.942 133.676 107.761 137.407 109.057 152.01C110.354 166.613 107.113 182.513 107.113 182.513H103.067L94.149 154.931L104.844 113.07C104.844 113.07 89.64 87.3276 89.3018 83.8112Z" fill="#424351"/>
<path d="M84.1024 70.2351C94.8419 70.2351 103.548 61.518 103.548 50.7649C103.548 40.0118 94.8419 31.2947 84.1024 31.2947C73.3628 31.2947 64.6567 40.0118 64.6567 50.7649C64.6567 61.518 73.3628 70.2351 84.1024 70.2351Z" fill="#FFB9B9"/>
<path d="M91.5566 65.3676C91.5566 65.3676 86.047 83.5398 90.9084 86.1358C95.7698 88.7318 101.279 100.414 101.279 100.414L92.853 109.825H73.4074L64.6568 100.089L61.0918 83.5398L65.9532 79.6457C65.9532 79.6457 71.1387 66.6656 71.1387 59.851C71.1387 53.0364 91.5566 65.3676 91.5566 65.3676Z" fill="#FFB9B9"/>
<path d="M93.177 85.4868C93.177 85.4868 89.2879 84.5133 91.5565 88.4073C93.8252 92.3013 96.0939 99.4404 87.9915 99.7649C79.8892 100.089 71.7868 95.8709 69.1941 87.1093C66.6013 78.3477 65.629 78.9967 64.6568 79.3212C63.6845 79.6457 53.3135 90.3543 53.3135 90.3543L56.8785 110.474L58.1749 182.513H105.493C105.493 182.513 107.437 161.745 104.196 156.878C100.955 152.01 107.113 139.679 107.113 139.679C107.113 139.679 112.623 131.242 108.409 115.017C104.196 98.7914 94.7975 85.4868 93.177 85.4868Z" fill="#3EA5D1"/>
<path d="M66.9254 79.3212C66.9254 79.3212 62.064 77.0497 57.8508 80.9437C53.6375 84.8378 44.2388 88.0828 44.2388 90.0298C44.2388 91.9768 52.3412 147.467 46.8316 157.202C41.322 166.937 35.4883 182.513 35.4883 182.513H62.522C62.522 182.513 66.9254 166.288 71.4627 157.527C76 148.765 75.6759 124.103 74.3795 116.639C73.0832 109.176 66.9254 79.3212 66.9254 79.3212Z" fill="#424351"/>
<path d="M38.4053 165.314L39.9836 182.513H57.4999L55.9063 161.096L38.4053 165.314Z" fill="#FFB9B9"/>
<path d="M118.132 156.228L122.345 182.513H216.008L224.111 129.619L118.132 156.228Z" fill="#323043"/>
<path d="M227.676 126.05L228.648 130.917L107.437 160.123V155.904L227.676 126.05Z" fill="#323043"/>
<path d="M176.469 134.811L175.821 140.328L182.951 139.354L180.034 133.838L176.469 134.811Z" fill="#323043"/>
<path d="M137.254 78.9966C137.254 78.9966 151.514 78.0231 155.403 89.0562C159.292 100.089 168.367 119.884 171.932 122.805C175.497 125.725 179.386 133.513 178.738 136.109" stroke="#323043" stroke-width="5" stroke-miterlimit="10"/>
<path d="M139.36 78.8344C139.36 80.3578 137.742 81.5927 135.147 81.5927C132.552 81.5927 131.258 80.3578 131.258 78.8344C131.258 77.3111 132.552 76.0762 135.147 76.0762C137.742 76.0762 139.36 77.3111 139.36 78.8344Z" fill="#3EA5D1"/>
<path d="M115.377 129.457C115.377 129.457 117.808 119.235 113.271 104.308C108.733 89.3807 108.085 93.2748 106.465 91.0032C104.844 88.7317 89.3018 83.811 89.3018 83.811C89.4129 84.9665 91.1292 88.5218 93.3837 92.7749C92.9779 91.2419 92.3629 89.7722 91.5563 88.4072C89.2876 84.5132 93.1767 85.4867 93.1767 85.4867C94.7972 85.4867 104.196 98.7913 108.409 115.016C112.622 131.242 107.113 139.679 107.113 139.679L115.377 129.457Z" fill="#424351"/>
<path d="M89.4502 83.702C89.4502 83.702 91.3689 90.9896 93.0023 92.0511C94.6357 93.1126 104.323 103.19 104.323 103.19L103.062 95.0596L97.8766 87.2716L96.4974 86.2695L89.4502 83.702Z" fill="#424351"/>
<path opacity="0.1" d="M46.3452 106.093L46.7971 89.3809C46.7971 89.3809 36.1363 93.9239 35.164 113.394C34.1917 132.864 36.7845 169.533 40.3495 169.858C43.9145 170.182 60.7674 166.288 60.7674 166.288C60.7674 166.288 63.3602 119.235 62.3879 113.07C61.4156 106.904 46.3452 106.093 46.3452 106.093Z" fill="black"/>
<path d="M47.1556 89.3809H44.5286C44.5286 89.3809 33.8677 93.9239 32.8954 113.394C31.9232 132.864 34.5159 169.533 38.0809 169.858C41.646 170.182 58.4989 166.288 58.4989 166.288C58.4989 166.288 61.0916 119.235 60.1193 113.07C59.147 106.904 47.1556 89.3809 47.1556 89.3809Z" fill="#424351"/>
<path d="M60.9298 68.1259C72.0273 68.1259 81.0236 58.0285 81.0236 45.5729C81.0236 33.1172 72.0273 23.0199 60.9298 23.0199C49.8322 23.0199 40.8359 33.1172 40.8359 45.5729C40.8359 58.0285 49.8322 68.1259 60.9298 68.1259Z" fill="#323043"/>
<path d="M75.352 63.9073C77.5894 63.9073 79.4031 61.2195 79.4031 57.9039C79.4031 54.5884 77.5894 51.9006 75.352 51.9006C73.1146 51.9006 71.3008 54.5884 71.3008 57.9039C71.3008 61.2195 73.1146 63.9073 75.352 63.9073Z" fill="#FFB9B9"/>
<path d="M40.8359 39.5696C49.9645 39.5696 57.3647 32.16 57.3647 23.0199C57.3647 13.8798 49.9645 6.47021 40.8359 6.47021C31.7073 6.47021 24.3071 13.8798 24.3071 23.0199C24.3071 32.16 31.7073 39.5696 40.8359 39.5696Z" fill="#323043"/>
<path d="M42.9723 36.2781C40.5711 37.5014 37.9076 38.1184 35.2138 38.0754C32.52 38.0324 29.8775 37.3307 27.5165 36.0314C25.1554 34.7321 23.1474 32.8745 21.6673 30.6205C20.1872 28.3665 19.2798 25.7844 19.0242 23.099C18.6713 25.417 18.8144 27.7837 19.444 30.0422C20.0737 32.3007 21.1755 34.3994 22.6765 36.1993C24.1775 37.9992 26.0434 39.4591 28.1506 40.4823C30.2577 41.5055 32.558 42.0687 34.8989 42.1344C37.2399 42.2002 39.5681 41.7671 41.7292 40.8638C43.8903 39.9605 45.835 38.6076 47.4345 36.8948C49.0339 35.1821 50.2516 33.1485 51.0067 30.9289C51.7618 28.7093 52.0372 26.3544 51.8146 24.0202C51.4214 26.6205 50.4139 29.0892 48.8759 31.2212C47.338 33.3532 45.314 35.0869 42.9723 36.2781V36.2781Z" fill="#323043"/>
<path d="M31.7675 25.7553C30.1078 23.6304 28.992 21.1315 28.5173 18.4761C28.0427 15.8208 28.2235 13.0895 29.0441 10.5201C29.8647 7.95072 31.3002 5.62115 33.2256 3.73425C35.1509 1.84735 37.5078 0.460328 40.091 -0.30603C37.7511 -0.208142 35.4588 0.386523 33.3659 1.43856C31.2729 2.4906 29.4272 3.97599 27.951 5.79629C26.4747 7.61658 25.4017 9.73023 24.8031 11.9971C24.2044 14.2641 24.0937 16.6325 24.4784 18.9455C24.863 21.2585 25.7342 23.4632 27.0343 25.4135C28.3343 27.3639 30.0335 29.0153 32.0191 30.2585C34.0048 31.5016 36.2317 32.3079 38.5522 32.6241C40.8727 32.9404 43.2338 32.7592 45.479 32.0926C42.8548 32.205 40.2417 31.6887 37.8568 30.5864C35.472 29.4842 33.3844 27.8279 31.7675 25.7553Z" fill="#323043"/>
<path d="M85.2367 44.1126C91.6804 44.1126 96.9041 40.3352 96.9041 35.6755C96.9041 31.0158 91.6804 27.2384 85.2367 27.2384C78.793 27.2384 73.5693 31.0158 73.5693 35.6755C73.5693 40.3352 78.793 44.1126 85.2367 44.1126Z" fill="#323043"/>
</g>
<defs>
<clipPath id="clip0_102_61">
<rect width="242" height="183" fill="white"/>
</clipPath>
</defs>
</svg>
