<svg width="204" height="206" viewBox="0 0 204 206" fill="none" xmlns="http://www.w3.org/2000/svg">
<g clip-path="url(#clip0_102_136)">
<path d="M45.754 34.4022L44.1987 42.543L51.9526 44.7225L50.9892 36.0312L45.754 34.4022Z" fill="#A0616A"/>
<path d="M0 202.917C0 203.173 0.206084 203.378 0.462714 203.378H203.537C203.794 203.378 204 203.173 204 202.917C204 202.661 203.794 202.456 203.537 202.456H0.462714C0.206084 202.456 0 202.661 0 202.917Z" fill="#3F3D56"/>
<path d="M138.433 92.3821H58.4656C49.3972 92.3821 42.0459 99.7115 42.0459 108.753V186.065C42.0459 195.106 49.3972 202.435 58.4655 202.435H138.433C147.501 202.435 154.853 195.106 154.853 186.064V108.753C154.853 99.7115 147.501 92.3821 138.433 92.3821V92.3821V92.3821Z" fill="white"/>
<path d="M138.433 202.823H58.4657C49.1976 202.823 41.6572 195.305 41.6572 186.064V108.753C41.6572 99.5124 49.1976 91.9945 58.4657 91.9945H138.433C147.701 91.9945 155.242 99.5124 155.242 108.753V186.064C155.242 195.305 147.701 202.823 138.433 202.823H138.433ZM58.4657 92.7698C49.6262 92.7698 42.4349 99.9398 42.4349 108.753V186.064C42.4349 194.878 49.6262 202.047 58.4657 202.047H138.433C147.273 202.047 154.464 194.878 154.464 186.064V108.753C154.464 99.9398 147.273 92.7698 138.433 92.7698H58.4657V92.7698V92.7698Z" fill="#3F3D56"/>
<path d="M144.225 125.9H112.083C110.72 125.9 109.61 124.794 109.61 123.434C109.61 122.075 110.72 120.969 112.083 120.969H144.225C145.589 120.969 146.698 122.075 146.698 123.434C146.698 124.794 145.589 125.9 144.225 125.9H144.225V125.9Z" fill="#1378A3"/>
<path d="M114.072 145.285H82.8275C82.0399 145.285 81.3989 144.646 81.3989 143.861C81.3989 143.075 82.0399 142.437 82.8275 142.437H114.072C114.859 142.437 115.5 143.075 115.5 143.861C115.5 144.646 114.859 145.285 114.072 145.285V145.285Z" fill="#1378A3"/>
<path d="M69.9112 97.6768H52.0733C52.0066 97.6768 51.9526 97.7306 51.9526 97.797V99.8674C51.9526 99.9339 52.0066 99.9877 52.0733 99.9877H69.9112C69.9778 99.9877 70.0318 99.9339 70.0318 99.8674V97.797C70.0318 97.7306 69.9778 97.6768 69.9112 97.6768Z" fill="#1378A3"/>
<path d="M129.995 99.9877C131.019 99.9877 131.85 99.16 131.85 98.1389C131.85 97.1179 131.019 96.2902 129.995 96.2902C128.971 96.2902 128.141 97.1179 128.141 98.1389C128.141 99.16 128.971 99.9877 129.995 99.9877Z" fill="#3F3D56"/>
<path d="M135.095 99.9877C136.119 99.9877 136.949 99.16 136.949 98.1389C136.949 97.1179 136.119 96.2902 135.095 96.2902C134.07 96.2902 133.24 97.1179 133.24 98.1389C133.24 99.16 134.07 99.9877 135.095 99.9877Z" fill="#3F3D56"/>
<path d="M140.194 99.9877C141.218 99.9877 142.048 99.16 142.048 98.1389C142.048 97.1179 141.218 96.2902 140.194 96.2902C139.17 96.2902 138.339 97.1179 138.339 98.1389C138.339 99.16 139.17 99.9877 140.194 99.9877Z" fill="#3F3D56"/>
<path d="M58.271 152.909C58.271 153.165 58.4771 153.371 58.7337 153.371H138.165C138.421 153.371 138.628 153.165 138.628 152.909C138.628 152.653 138.421 152.448 138.165 152.448H58.7337C58.4771 152.448 58.271 152.653 58.271 152.909V152.909Z" fill="#3F3D56"/>
<path d="M82.4965 39.1214C84.1875 37.7282 86.2791 37.4689 87.1682 38.542C88.0573 39.6152 87.407 41.614 85.7152 43.0074C85.0471 43.5732 84.2527 43.9713 83.3986 44.1683L76.159 49.9808L73.4956 46.5354L80.9154 41.1711C81.2707 40.3718 81.8128 39.6689 82.4965 39.1214H82.4965V39.1214Z" fill="#A0616A"/>
<path d="M40.6517 52.2358C40.648 51.9787 40.6504 49.7365 42.3154 48.3193C44.2279 46.6913 46.9266 47.3502 47.8732 47.5814C50.0597 48.1152 50.2391 49.0504 52.2925 50.0113C56.1342 51.809 51.3207 50.8889 53.6066 50.3124C54.3979 50.1129 65.7813 49.3258 68.6148 47.587C74.1257 44.2052 77.8806 42.1545 77.8806 42.1545L80.3353 47.0493C80.3353 47.0493 76.7858 51.97 71.7903 55.6154C66.6659 59.3547 64.1038 61.2244 60.21 61.9468C59.8747 62.009 51.6279 63.4129 44.9859 58.4653C43.4708 57.3368 40.6949 55.2691 40.6517 52.2358V52.2358V52.2358Z" fill="#1378A3"/>
<path d="M48.2664 39.7873C52.9891 39.7873 56.8175 35.9703 56.8175 31.2617C56.8175 26.5531 52.9891 22.7361 48.2664 22.7361C43.5438 22.7361 39.7153 26.5531 39.7153 31.2617C39.7153 35.9703 43.5438 39.7873 48.2664 39.7873Z" fill="#A0616A"/>
<path d="M115.235 88.5402L106.429 79.5526L101.883 84.2804L108.444 92.8979L114.952 93.64L115.235 88.5402Z" fill="#A0616A"/>
<path d="M64.9502 71.6864C65.4653 71.7291 67.1022 72.056 68.6667 71.1978C69.7344 70.6121 70.2821 69.7412 70.467 69.4643C72.7615 66.0284 81.5686 60.6705 89.4726 60.3407C91.2626 60.2661 92.4408 60.4729 93.5116 61.0294C95.0301 61.8186 95.6363 62.949 97.5632 65.5971C98.6172 67.0457 99.7835 68.4103 100.85 69.8496C107.095 78.2758 109.463 78.9373 109.221 81.6387C108.952 84.6359 105.71 87.4795 103.555 87.1512C102.673 87.0168 102.331 86.405 101.152 85.1665C97.6952 81.535 96.2649 82.2059 93.8036 79.4245C90.9301 76.177 91.3063 73.4844 89.807 73.3804C88.4168 73.2839 87.8259 75.581 84.8578 78.6324C83.4996 80.0287 82.5325 80.6693 79.586 82.7073C68.1118 90.6437 67.9287 91.2015 65.6131 91.8344C64.5999 92.1114 57.4092 94.0769 54.8477 90.949C50.8392 86.0542 60.309 71.3019 64.9502 71.6864L64.9502 71.6864V71.6864Z" fill="#2F2E41"/>
<path d="M112.543 90.5712C113.191 90.2812 113.948 89.9422 114.192 89.1625C114.357 88.6349 114.262 87.9844 113.921 87.5349C113.528 87.0163 112.946 86.9479 112.969 86.8562C113.005 86.7164 114.381 86.7711 115.892 87.3035C116.177 87.404 117.469 87.8745 119.111 89.1533C120.428 90.1778 120.251 90.3832 121.076 90.974C123.61 92.7873 125.986 91.3581 127.357 93.0588C127.886 93.7151 128.112 94.6469 127.889 95.4004C127.442 96.9135 125.267 97.4342 124.079 97.7031C121.217 98.3505 119.05 97.822 116.788 97.4419C109.095 96.1494 104.772 97.3266 104.194 95.5496C104.084 95.2132 104.262 95.2419 104.855 92.7738C105.441 90.3378 105.421 89.6689 105.92 89.4738C106.671 89.1802 107.175 90.5158 109.065 90.9729C110.741 91.378 112.123 90.7591 112.543 90.5712L112.543 90.5712V90.5712Z" fill="#2F2E41"/>
<path d="M99.579 117.942L97.354 105.575L90.9297 106.942L91.5052 117.746L96.4723 122.003L99.579 117.942Z" fill="#A0616A"/>
<path d="M67.4628 75.8435C67.865 76.1671 69.0353 77.3541 70.8132 77.5199C72.0266 77.6331 72.9702 77.219 73.2792 77.0934C77.113 75.535 87.418 76.0323 94.144 80.1847C95.6671 81.1251 96.5255 81.9558 97.0982 83.0159C97.9102 84.519 97.7751 85.7938 97.878 89.0638C97.9344 90.8525 98.1308 92.6346 98.2028 94.4228C98.6246 104.891 100.211 106.764 98.4894 108.864C96.5791 111.194 92.2949 111.732 90.6967 110.254C90.0422 109.648 90.104 108.951 89.826 107.266C89.0108 102.325 87.4494 102.08 86.9794 98.4004C86.4307 94.1044 88.2585 92.087 87.0765 91.1616C85.9805 90.3034 84.1979 91.8733 80.0232 92.7365C78.113 93.1315 76.952 93.12 73.3661 93.1568C59.4018 93.2998 58.9361 93.6588 56.6636 92.8861C55.6693 92.548 48.6123 90.1486 48.2545 86.1263C47.6945 79.8318 63.8389 72.9269 67.4628 75.8435L67.4628 75.8434V75.8435Z" fill="#2F2E41"/>
<path d="M96.2074 118.115C96.9067 118.238 97.7243 118.381 98.365 117.873C98.7986 117.528 99.0864 116.937 99.0575 116.374C99.0243 115.725 98.5812 115.343 98.6524 115.28C98.7608 115.184 99.8687 116 100.819 117.286C100.998 117.529 101.802 118.641 102.441 120.619C102.953 122.204 102.691 122.275 103.041 123.226C104.116 126.145 106.888 126.293 107.064 128.467C107.132 129.307 106.794 130.204 106.186 130.703C104.963 131.704 102.871 130.918 101.736 130.475C99.003 129.408 97.508 127.758 95.8502 126.177C90.2123 120.8 85.9726 119.354 86.4947 117.56C86.5935 117.22 86.7246 117.344 88.6055 115.634C90.4619 113.946 90.8228 113.381 91.3452 113.499C92.1317 113.676 91.7964 115.064 93.1035 116.501C94.2617 117.774 95.7543 118.036 96.2074 118.115H96.2074V118.115Z" fill="#2F2E41"/>
<path d="M49.4324 32.8916C49.7653 31.7043 49.3472 31.2717 49.7734 30.7387C49.7734 30.7387 49.9449 30.5243 51.4781 29.9455C51.0257 27.3287 51.3644 26.8862 51.3644 26.8862C51.7548 26.3762 52.5368 26.2529 53.0692 26.3196C54.1951 26.4607 54.3944 27.4755 55.1148 27.4527C56.1101 27.4213 57.3037 25.4351 56.9332 23.7135C56.631 22.3093 55.3279 21.2664 55.0012 21.4473C54.6773 21.6268 53.5114 20.8356 53.0692 20.9941C52.7672 21.1024 51.3458 20.9583 51.0235 21.1074C50.6715 21.2702 49.6636 22.2839 49.5672 22.1562C48.8975 21.2686 48.9118 20.9588 48.5233 20.7675C47.8348 20.4285 47.0863 21.055 45.7957 21.674C43.1403 22.9474 42.3627 22.1878 41.1361 23.2603C40.5165 23.8021 40.1843 24.8375 39.5451 26.8862C38.6511 29.7513 38.2042 31.1838 38.6359 32.5517C39.0762 33.9466 39.7245 33.643 40.6815 35.611C41.7468 37.8018 41.3797 39.0751 42.3863 39.5768C43.1642 39.9646 44.4145 39.7178 44.8865 39.0103C45.6947 37.799 43.6058 36.1603 44.3183 34.2513C44.7556 33.0795 46.1048 32.1909 46.9322 32.4384C47.8677 32.7181 47.9366 34.3905 48.5233 34.3646C49.0256 34.3425 49.3744 33.0985 49.4324 32.8916L49.4324 32.8916L49.4324 32.8916Z" fill="#2F2E41"/>
<path d="M42.9543 41.0499C44.7042 39.0937 51.8317 41.1184 52.5007 44.2225C52.7759 45.4993 51.7601 46.0384 52.0461 47.5085C52.4645 49.6587 54.8336 49.5121 56.5921 51.701C59.0885 54.8084 56.5167 57.8461 59.3196 63.0319C59.9186 64.1401 60.4234 65.074 61.4789 65.978C63.9011 68.0522 66.1553 67.3408 67.3886 69.2639C68.3109 70.7021 67.932 72.4746 67.8432 72.8898C67.4792 74.5924 66.4927 75.0073 65.7975 76.4024C64.641 78.7236 65.9505 80.4277 66.0248 83.201C66.1179 86.6709 64.2684 91.4808 60.5697 93.0589C56.4144 94.8319 51.4028 91.8954 48.9776 88.9798C47.5305 87.2399 47.1105 85.6351 46.4774 83.6542C43.648 74.8012 42.0495 75.6019 39.8858 68.5841C37.4123 60.5614 36.926 51.1625 39.8858 48.1884C40.2781 47.7942 41.3577 46.883 42.0451 45.2423C42.9701 43.0346 42.171 41.9255 42.9543 41.0499H42.9543V41.0499Z" fill="#1378A3"/>
<path d="M68.8104 86.5868C70.1671 88.3054 70.3774 90.3964 69.2803 91.257C68.1831 92.1177 66.1943 91.4221 64.8374 89.7026C64.2859 89.0232 63.9056 88.222 63.7284 87.366L58.0723 80.0118L60.9949 77.7892L66.7927 84.9621C67.5858 85.3352 68.2776 85.8923 68.8104 86.5868H68.8104H68.8104Z" fill="#A0616A"/>
<path d="M48.0957 48.505C48.3474 48.4489 50.5495 47.9938 52.2807 49.3297C54.2695 50.8642 54.1731 53.6327 54.1393 54.6038C54.0613 56.8469 53.1796 57.2127 52.6551 59.413C51.6739 63.5295 53.5426 67.3551 54.5751 69.4686C54.9325 70.2002 56.0806 72.4388 58.3661 74.8497C62.8111 79.5385 66.7771 82.0058 66.7771 82.0058L62.5164 85.7817C62.5164 85.7817 55.7297 83.7193 51.131 79.5872C46.4138 75.3487 39.1596 60.352 37.6558 56.6989C37.5263 56.3843 39.3608 61.4989 42.8634 54.0064C43.6624 52.2974 45.1262 49.1661 48.0957 48.505H48.0957V48.505Z" fill="#1378A3"/>
<path d="M106.514 163.47C103.806 163.884 101.825 165.612 102.09 167.331C102.354 169.049 104.764 170.106 107.473 169.692C108.557 169.541 109.589 169.133 110.484 168.503L121.936 166.605L121.172 162.092L109.745 163.704C108.702 163.37 107.595 163.29 106.514 163.47H106.514V163.47Z" fill="#FFB6B6"/>
<path d="M155.865 149.401L151.424 158.796L129.1 166.289L110.576 167.274L110.112 162.838L130.188 158.653L150.789 148.947L155.865 149.401Z" fill="#1378A3"/>
<path d="M114.691 185.074L110.704 195.128L105.545 191.621L108.594 181.099L114.691 185.074Z" fill="#FFB6B6"/>
<path d="M98.0406 181.333L87.4873 191.387L91.7086 195.829L102.496 187.412L98.0406 181.333Z" fill="#FFB6B6"/>
<path d="M157.843 148.598L157.725 147.78L155.028 142.519L146.117 144.857L147.758 152.105L157.843 148.598Z" fill="#FFB6B6"/>
<path d="M154.09 183.671L154.364 187.183C154.364 187.183 155.497 201.909 146.351 203.078C137.205 204.247 133.218 205.416 127.824 196.297L119.381 181.333L114.45 187.183L107.89 182.034C107.89 182.034 112.58 163.796 116.333 163.095C116.802 163.007 117.271 162.963 117.733 162.954C120.839 162.889 123.767 164.404 125.626 166.886L136.267 181.099L140.136 179.345L154.09 183.671V183.671V183.671Z" fill="#2F2E41"/>
<path d="M103.435 194.66L105.545 190.685L111.643 194.894C111.643 194.894 113.05 200.038 110.939 200.74C108.829 201.441 102.966 200.506 102.966 200.506C102.966 200.506 92.1778 202.844 91.9433 200.74C91.7088 198.635 96.8682 198.168 96.8682 198.168L103.435 194.66L103.435 194.66H103.435Z" fill="#2F2E41"/>
<path d="M126.417 191.854L110.118 181.615L101.793 189.049L96.1646 182.502C96.1646 182.502 106.483 167.304 109.532 166.602C112.581 165.901 117.506 165.433 117.506 165.433L132.515 179.228L126.417 191.854V191.854V191.854Z" fill="#2F2E41"/>
<path d="M87.2528 190.451L92.6467 196.297L91.9354 196.904C91.9354 196.904 90.5361 202.98 87.2528 200.924C83.9696 198.869 83.7351 198.401 83.7351 198.401C83.7351 198.401 74.3544 200.506 73.4163 196.765C72.4782 193.023 75.0579 193.725 75.0579 193.725L77.4003 195.128L87.2528 190.451L87.2528 190.451V190.451Z" fill="#2F2E41"/>
<path d="M148.931 147.429C153.075 147.429 156.435 144.079 156.435 139.947C156.435 135.814 153.075 132.465 148.931 132.465C144.786 132.465 141.426 135.814 141.426 139.947C141.426 144.079 144.786 147.429 148.931 147.429Z" fill="#FFB6B6"/>
<path d="M147.172 150.585L157.96 147.312C157.96 147.312 162.181 157.132 161.477 161.575C160.774 166.017 154.364 187.183 154.364 187.183L140.136 179.345C140.136 179.345 139.902 174.669 139.198 172.564C138.495 170.46 136.267 164.03 141.192 158.652C146.117 153.274 147.172 150.585 147.172 150.585L147.172 150.585V150.585Z" fill="#1378A3"/>
<path d="M123.429 199.683C121.673 201.78 121.335 204.383 122.674 205.497C124.013 206.611 126.521 205.813 128.277 203.715C128.99 202.887 129.493 201.9 129.745 200.838L137.072 191.859L133.503 188.979L126.006 197.727C125.003 198.164 124.119 198.835 123.429 199.683L123.429 199.683V199.683Z" fill="#FFB6B6"/>
<path d="M155.447 155.303L157.997 165.373L145.517 185.29L132.777 198.056L128.647 194.64L141.496 178.701L151.235 158.164L155.447 155.303Z" fill="#1378A3"/>
<path d="M142.012 138.661C143.937 138.656 144.046 138.669 144.358 138.661C146.745 138.598 147.369 137.662 148.579 137.725C150.738 137.839 147.888 148.634 146.703 153.625C145.54 158.52 149.469 162.906 149.751 163.212C153.739 167.536 160.744 168.327 161.946 166.485C162.919 164.995 159.471 162.728 160.305 159.471C161.119 156.286 164.882 156.625 165.933 153.625C167.034 150.483 163.333 148.899 161.008 141.233C159.673 136.83 159.909 136.01 158.663 133.283C155.332 125.994 139.007 129.098 140.84 135.855C141.194 137.162 140.251 138.665 142.012 138.661V138.661V138.661Z" fill="#2F2E41"/>
<path d="M165.976 49.8376H87.1046C84.8741 49.8376 83.0596 48.0283 83.0596 45.8046V4.03299C83.0596 1.80933 84.8741 0 87.1046 0H165.976C168.207 0 170.021 1.80932 170.021 4.03299V45.8046C170.021 48.0283 168.207 49.8376 165.976 49.8376V49.8376Z" fill="white"/>
<path d="M165.976 49.8376H87.1046C84.8741 49.8376 83.0596 48.0283 83.0596 45.8046V4.03299C83.0596 1.80933 84.8741 0 87.1046 0H165.976C168.207 0 170.021 1.80932 170.021 4.03299V45.8046C170.021 48.0283 168.207 49.8376 165.976 49.8376V49.8376ZM87.1046 0.673481C85.2467 0.673481 83.7351 2.18059 83.7351 4.03299V45.8046C83.7351 47.657 85.2467 49.1641 87.1046 49.1641H165.976C167.834 49.1641 169.346 47.657 169.346 45.8046V4.03299C169.346 2.18059 167.834 0.673481 165.976 0.673481H87.1046V0.673481Z" fill="#3F3D56"/>
<path d="M159.889 5.05108C160.448 5.05108 160.902 4.59879 160.902 4.04086C160.902 3.48293 160.448 3.03064 159.889 3.03064C159.329 3.03064 158.875 3.48293 158.875 4.04086C158.875 4.59879 159.329 5.05108 159.889 5.05108Z" fill="#3F3D56"/>
<path d="M162.591 5.05108C163.15 5.05108 163.604 4.59879 163.604 4.04086C163.604 3.48293 163.15 3.03064 162.591 3.03064C162.031 3.03064 161.578 3.48293 161.578 4.04086C161.578 4.59879 162.031 5.05108 162.591 5.05108Z" fill="#3F3D56"/>
<path d="M165.293 5.05108C165.852 5.05108 166.306 4.59879 166.306 4.04086C166.306 3.48293 165.852 3.03064 165.293 3.03064C164.733 3.03064 164.279 3.48293 164.279 4.04086C164.279 4.59879 164.733 5.05108 165.293 5.05108Z" fill="#3F3D56"/>
<path d="M88.8011 20.3728C88.5217 20.3728 88.2944 20.5994 88.2944 20.8779C88.2944 21.0137 88.347 21.1393 88.4425 21.2321C88.5388 21.3304 88.665 21.383 88.801 21.383H164.617C164.896 21.383 165.124 21.1564 165.124 20.8779C165.124 20.7421 165.071 20.6165 164.976 20.5237C164.879 20.4254 164.753 20.3728 164.617 20.3728H88.8011Z" fill="#1378A3"/>
<path d="M155.161 20.2045V21.5514H88.8015C88.6157 21.5514 88.4468 21.4773 88.3253 21.3527C88.2003 21.2315 88.126 21.0632 88.126 20.8779C88.126 20.5075 88.43 20.2045 88.8015 20.2045H155.161V20.2045Z" fill="#1378A3"/>
<path d="M163.773 17.6789H157.018C156.273 17.6789 155.667 17.0748 155.667 16.3319C155.667 15.5891 156.273 14.985 157.018 14.985H163.773C164.518 14.985 165.124 15.5891 165.124 16.3319C165.124 17.0748 164.518 17.6789 163.773 17.6789Z" fill="#1378A3"/>
<path d="M119.528 10.6074H89.308C88.5631 10.6074 87.957 10.0033 87.957 9.26041C87.957 8.51755 88.5631 7.91345 89.308 7.91345H119.528C120.273 7.91345 120.879 8.51755 120.879 9.26041C120.879 10.0033 120.273 10.6074 119.528 10.6074Z" fill="#1378A3"/>
<path d="M88.8011 35.5261C88.5217 35.5261 88.2944 35.7527 88.2944 36.0312C88.2944 36.167 88.347 36.2927 88.4425 36.3854C88.5388 36.4837 88.665 36.5363 88.801 36.5363H164.617C164.896 36.5363 165.124 36.3098 165.124 36.0312C165.124 35.8954 165.071 35.7698 164.976 35.6771C164.879 35.5787 164.753 35.5261 164.617 35.5261H88.8011Z" fill="#1378A3"/>
<path d="M129.154 35.3578V36.7047H88.8015C88.6157 36.7047 88.4468 36.6307 88.3253 36.5061C88.2003 36.3848 88.126 36.2165 88.126 36.0313C88.126 35.6608 88.43 35.3578 88.8015 35.3578H129.154V35.3578Z" fill="#1378A3"/>
<path d="M163.773 32.8322H157.018C156.273 32.8322 155.667 32.2281 155.667 31.4853C155.667 30.7424 156.273 30.1383 157.018 30.1383H163.773C164.518 30.1383 165.124 30.7424 165.124 31.4853C165.124 32.2281 164.518 32.8322 163.773 32.8322Z" fill="#1378A3"/>
</g>
<defs>
<clipPath id="clip0_102_136">
<rect width="204" height="206" fill="white"/>
</clipPath>
</defs>
</svg>
